<?xml version="1.0" encoding="utf-8"?>
<svg width="201px" height="292px" viewBox="0 0 201 292" version="1.1" xmlns:xlink="http://www.w3.org/1999/xlink" xmlns="http://www.w3.org/2000/svg">
  <desc>Created with Lunacy</desc>
  <g id="Cart" transform="scale(1.000002 1.000002)">
    <path d="M19.999 0L180.001 0C191.046 0 200 8.95386 200 19.999L200 271.001C200 282.046 191.046 291 180.001 291L19.999 291C8.95386 291 0 282.046 0 271.001L0 19.999C0 8.95386 8.95386 0 19.999 0Z" transform="translate(6.103516E-05 0)" id="Body" fill="#3D3D3D" stroke="none" />
    <path d="M20.9073 2.74581L33.0927 14.2542C34.6983 15.7707 34.2096 17 32.001 17L3.999 17C1.79041 17 1.30165 15.7707 2.90733 14.2542L15.0927 2.74581C16.6983 1.22934 19.3017 1.22934 20.9073 2.74581Z" transform="matrix(0.9999999 -1.685867E-07 -1.685867E-07 -0.9999999 81.00037 283.9999)" id="Triangle" fill="#1A1A1A" stroke="none" />
    <path d="M6.999 0L57.001 0C60.8664 0 64 3.13356 64 6.999L64 10.001C64 13.8664 60.8664 17 57.001 17L6.999 17C3.13356 17 0 13.8664 0 10.001L0 6.999C0 3.13356 3.13356 0 6.999 0Z" transform="translate(67.99988 14.99994)" id="Indent" fill="#1A1A1A" stroke="none" />
    <g id="Label" transform="matrix(0.9999979 6.01779E-08 -6.01779E-08 0.9999979 13.85291 22.00009)">
      <path d="M7.999 0L164.001 0C168.419 0 172 3.58127 172 7.999L172 228.001C172 232.419 168.419 236 164.001 236L7.999 236C3.58127 236 0 232.419 0 228.001L0 7.999C0 3.58127 3.58127 0 7.999 0Z" transform="matrix(1.000002 2.770208E-07 -2.770208E-07 1.000002 0.0001220703 0)" id="OuterLabel" fill="#1A1A1A" stroke="none" />
      <path d="M4.999 0L159.001 0C161.762 0 164 2.23813 164 4.999L164 223.001C164 225.762 161.762 228 159.001 228L4.999 228C2.23813 228 0 225.762 0 223.001L0 4.999C0 2.23813 2.23813 0 4.999 0Z" transform="translate(4.000366 4.000473)" id="InnerLabel" fill="#D3D3D3" stroke="none" />
    </g>
  </g>
</svg>